<svg width="400" height="400" viewBox="0 0 400 400" fill="none" xmlns="http://www.w3.org/2000/svg">
  <!-- Icon only (food box) -->
  <g transform="translate(50, 50)">
    <!-- Steam -->
    <path d="M120 80 C120 60, 140 40, 160 60 C160 40, 180 20, 200 40" stroke="#E53E3E" stroke-width="12" stroke-linecap="round" fill="none"/>
    <path d="M180 80 C180 60, 200 40, 220 60 C220 40, 240 20, 260 40" stroke="#E53E3E" stroke-width="12" stroke-linecap="round" fill="none"/>
    
    <!-- Box lid -->
    <path d="M50 120 L350 120 L380 140 L380 180 L320 200 L80 200 L20 180 L20 140 Z" fill="#E53E3E"/>
    <path d="M50 120 L350 120 L320 140 L80 140 Z" fill="#FFFFFF" stroke="#FFFFFF" stroke-width="6"/>
    
    <!-- Box body -->
    <path d="M80 200 L320 200 L350 220 L350 320 L280 350 L120 350 L50 320 L50 220 Z" fill="#FF8C00"/>
    <path d="M80 200 L320 200 L280 220 L120 220 Z" fill="#FFFFFF" stroke="#FFFFFF" stroke-width="6"/>
  </g>
</svg>
